<?xml version="1.0" encoding="UTF-8" standalone="no"?>
<!-- Created with Inkscape (http://www.inkscape.org/) -->

<svg
   width="35mm"
   height="35mm"
   viewBox="0 0 35 35"
   version="1.1"
   id="svg1"
   xml:space="preserve"
   inkscape:version="1.4 (86a8ad7, 2024-10-11)"
   sodipodi:docname="icon_sleeping.svg"
   inkscape:export-filename="icon_sleeping.png"
   inkscape:export-xdpi="92.891434"
   inkscape:export-ydpi="92.891434"
   xmlns:inkscape="http://www.inkscape.org/namespaces/inkscape"
   xmlns:sodipodi="http://sodipodi.sourceforge.net/DTD/sodipodi-0.dtd"
   xmlns="http://www.w3.org/2000/svg"
   xmlns:svg="http://www.w3.org/2000/svg"><sodipodi:namedview
     id="namedview1"
     pagecolor="#ffffff"
     bordercolor="#000000"
     borderopacity="0.25"
     inkscape:showpageshadow="2"
     inkscape:pageopacity="0.0"
     inkscape:pagecheckerboard="0"
     inkscape:deskcolor="#d1d1d1"
     inkscape:document-units="mm"
     inkscape:zoom="1.3701319"
     inkscape:cx="9.1232093"
     inkscape:cy="143.41685"
     inkscape:window-width="1656"
     inkscape:window-height="1008"
     inkscape:window-x="242"
     inkscape:window-y="0"
     inkscape:window-maximized="0"
     inkscape:current-layer="layer1" /><defs
     id="defs1" /><g
     inkscape:label="Ebene 1"
     inkscape:groupmode="layer"
     id="layer1"
     transform="translate(-39.683679,-79.364211)"><path
       style="fill:none;fill-opacity:1;stroke:#6f6f6f;stroke-width:0.5;stroke-linecap:square;stroke-dasharray:none;stroke-opacity:1"
       d="m 65.891039,96.499292 c 0,0 2.51041,-3.620773 6.10704,-3.717327"
       id="path4"
       sodipodi:nodetypes="cc" /><path
       style="fill:none;fill-opacity:1;stroke:#6f6f6f;stroke-width:0.5;stroke-linecap:square;stroke-dasharray:none;stroke-opacity:1"
       d="m 67.066179,97.769584 c 0,0 1.3759,-2.582818 4.65873,-3.379388"
       id="path4-2"
       sodipodi:nodetypes="cc" /><path
       style="fill:#6f6f6f;fill-opacity:1;stroke:none;stroke-width:1.1;stroke-linecap:square;stroke-dasharray:none"
       d="m 27.872913,107.86852 c 2.048219,0.54619 14.081289,4.70036 32.924903,-3.7656 0,0 8.654713,-1.61882 9.269183,-4.827699 -1.50203,-5.052273 -10.141011,-7.828567 -11.779586,-9.94506 -1.160657,-1.297205 -2.576669,-5.640123 -4.010422,-5.503575 -2.389589,0.546192 -0.141399,5.140789 -0.141399,5.140789 l -2.027632,0.28966 c 0,0 -5.141622,-5.437313 -7.531211,-4.754573 -2.321315,0.34137 -3.186279,4.248375 -3.186279,4.248375 -18.570518,1.228931 -18.152147,14.579653 -18.152147,14.579653 -1.570301,2.32131 -18.972852,0.8207 -18.972852,0.8207 l -0.144833,1.64142 c 0,0 16.315022,1.16752 19.455624,-0.67588 0,0 2.589802,2.34215 4.296651,2.75179 z"
       id="path1"
       sodipodi:nodetypes="cccccccccccccc" /><path
       style="fill:#ffffff;fill-opacity:1;stroke:none;stroke-width:1.1;stroke-linecap:square;stroke-dasharray:none"
       d="m 44.0444,86.934173 c -1.228931,4.779178 4.028165,7.510137 4.028165,7.510137 1.365479,-0.409644 0.614465,-6.281205 0.614465,-6.281205 -3.004054,-3.27715 -4.64263,-1.228932 -4.64263,-1.228932 z"
       id="path2"
       sodipodi:nodetypes="cccc" /><path
       style="fill:none;fill-opacity:1;stroke:#000000;stroke-width:0.5;stroke-linecap:square;stroke-dasharray:none;stroke-opacity:1"
       d="m 56.070682,95.510179 c 0,0 2.412006,-3.21194 4.657187,-0.0836"
       id="path4-2-6-6"
       sodipodi:nodetypes="cc" /></g></svg>
