<?xml version="1.0" encoding="UTF-8" standalone="no"?>
<!-- Created with Inkscape (http://www.inkscape.org/) -->

<svg
   width="68.134064mm"
   height="25.543394mm"
   viewBox="0 0 68.134064 25.543394"
   version="1.1"
   id="svg1"
   xml:space="preserve"
   inkscape:version="1.4 (86a8ad7, 2024-10-11)"
   sodipodi:docname="mouse.svg"
   xmlns:inkscape="http://www.inkscape.org/namespaces/inkscape"
   xmlns:sodipodi="http://sodipodi.sourceforge.net/DTD/sodipodi-0.dtd"
   xmlns="http://www.w3.org/2000/svg"
   xmlns:svg="http://www.w3.org/2000/svg"><sodipodi:namedview
     id="namedview1"
     pagecolor="#ffffff"
     bordercolor="#000000"
     borderopacity="0.25"
     inkscape:showpageshadow="2"
     inkscape:pageopacity="0.0"
     inkscape:pagecheckerboard="0"
     inkscape:deskcolor="#d1d1d1"
     inkscape:document-units="mm"
     inkscape:zoom="0.96882954"
     inkscape:cx="220.369"
     inkscape:cy="106.82994"
     inkscape:window-width="1656"
     inkscape:window-height="1008"
     inkscape:window-x="242"
     inkscape:window-y="0"
     inkscape:window-maximized="0"
     inkscape:current-layer="layer1" /><defs
     id="defs1" /><g
     inkscape:label="Ebene 1"
     inkscape:groupmode="layer"
     id="layer1"
     transform="translate(-39.683679,-79.364211)"><path
       style="fill:none;fill-opacity:1;stroke:#6f6f6f;stroke-width:0.5;stroke-linecap:square;stroke-dasharray:none;stroke-opacity:1"
       d="m 101.45408,92.040066 c 0,0 2.51041,-3.620773 6.10704,-3.717327"
       id="path4"
       sodipodi:nodetypes="cc" /><path
       style="fill:none;fill-opacity:1;stroke:#6f6f6f;stroke-width:0.5;stroke-linecap:square;stroke-dasharray:none;stroke-opacity:1"
       d="m 102.62922,93.310358 c 0,0 1.3759,-2.582818 4.65873,-3.379388"
       id="path4-2"
       sodipodi:nodetypes="cc" /><path
       style="fill:#6f6f6f;fill-opacity:1;stroke:none;stroke-width:1.1;stroke-linecap:square;stroke-dasharray:none"
       d="m 63.435954,103.4093 c 2.048219,0.54619 14.081289,4.70036 32.924903,-3.765609 0,0 8.654713,-1.61882 9.269183,-4.827696 -1.50203,-5.052273 -10.141011,-7.828567 -11.779586,-9.94506 -1.160657,-1.297205 -2.576669,-5.640123 -4.010422,-5.503575 -2.389589,0.546192 -0.141399,5.140789 -0.141399,5.140789 l -2.027632,0.28966 c 0,0 -5.141622,-5.437313 -7.531211,-4.754573 -2.321315,0.34137 -3.186279,4.248375 -3.186279,4.248375 -18.570518,1.228931 -18.152147,14.57965 -18.152147,14.57965 -1.570301,2.321319 -18.972852,0.820708 -18.972852,0.820708 l -0.144833,1.641421 c 0,0 16.315022,1.16752 19.455624,-0.67588 0,0 2.589802,2.34215 4.296651,2.75179 z"
       id="path1"
       sodipodi:nodetypes="cccccccccccccc" /><path
       style="fill:#ffffff;fill-opacity:1;stroke:none;stroke-width:1.1;stroke-linecap:square;stroke-dasharray:none"
       d="m 79.607441,82.474947 c -1.228931,4.779178 4.028165,7.510137 4.028165,7.510137 1.365479,-0.409644 0.614465,-6.281205 0.614465,-6.281205 -3.004054,-3.27715 -4.64263,-1.228932 -4.64263,-1.228932 z"
       id="path2"
       sodipodi:nodetypes="cccc" /><ellipse
       style="fill:#ffffff;fill-opacity:1;stroke:none;stroke-width:1.04502;stroke-linecap:square;stroke-dasharray:none"
       id="path3"
       cx="92.184898"
       cy="88.87793"
       rx="2.2240903"
       ry="2.151675" /><ellipse
       style="fill:#444444;fill-opacity:1;stroke:none;stroke-width:0.518463;stroke-linecap:square;stroke-dasharray:none"
       id="path3-4"
       cx="92.238777"
       cy="88.953827"
       rx="1.2295567"
       ry="0.95799881" /></g></svg>
