<?xml version="1.0" encoding="UTF-8" standalone="no"?>
<!-- Created with Inkscape (http://www.inkscape.org/) -->

<svg
   width="68.134064mm"
   height="25.543394mm"
   viewBox="0 0 68.134064 25.543394"
   version="1.1"
   id="svg1"
   xml:space="preserve"
   inkscape:version="1.4 (86a8ad7, 2024-10-11)"
   sodipodi:docname="mouse_sleeping.svg"
   xmlns:inkscape="http://www.inkscape.org/namespaces/inkscape"
   xmlns:sodipodi="http://sodipodi.sourceforge.net/DTD/sodipodi-0.dtd"
   xmlns="http://www.w3.org/2000/svg"
   xmlns:svg="http://www.w3.org/2000/svg"><sodipodi:namedview
     id="namedview1"
     pagecolor="#ffffff"
     bordercolor="#000000"
     borderopacity="0.25"
     inkscape:showpageshadow="2"
     inkscape:pageopacity="0.0"
     inkscape:pagecheckerboard="0"
     inkscape:deskcolor="#d1d1d1"
     inkscape:document-units="mm"
     inkscape:zoom="0.96882954"
     inkscape:cx="268.88115"
     inkscape:cy="95.476032"
     inkscape:window-width="1656"
     inkscape:window-height="1008"
     inkscape:window-x="239"
     inkscape:window-y="198"
     inkscape:window-maximized="0"
     inkscape:current-layer="layer1" /><defs
     id="defs1" /><g
     inkscape:label="Ebene 1"
     inkscape:groupmode="layer"
     id="layer1"
     transform="translate(-40.320207,-111.07184)"><path
       style="fill:none;fill-opacity:1;stroke:#6f6f6f;stroke-width:0.5;stroke-linecap:square;stroke-dasharray:none;stroke-opacity:1"
       d="m 102.09061,123.74769 c 0,0 2.51041,-3.62077 6.10704,-3.71732"
       id="path4-21"
       sodipodi:nodetypes="cc" /><path
       style="fill:none;fill-opacity:1;stroke:#6f6f6f;stroke-width:0.5;stroke-linecap:square;stroke-dasharray:none;stroke-opacity:1"
       d="m 103.26575,125.01798 c 0,0 1.3759,-2.58281 4.65873,-3.37938"
       id="path4-2-6"
       sodipodi:nodetypes="cc" /><path
       style="fill:#6f6f6f;fill-opacity:1;stroke:none;stroke-width:1.1;stroke-linecap:square;stroke-dasharray:none"
       d="m 64.072482,135.11693 c 2.048219,0.54619 14.081289,4.70036 32.924905,-3.76561 0,0 8.654713,-1.61882 9.269183,-4.8277 -1.50203,-5.05227 -10.141013,-7.82857 -11.779583,-9.94506 -1.16066,-1.2972 -2.57667,-5.64012 -4.01043,-5.50357 -2.38959,0.54619 -0.1414,5.14079 -0.1414,5.14079 l -2.02763,0.28966 c 0,0 -5.14162,-5.43732 -7.531209,-4.75458 -2.321315,0.34137 -3.186279,4.24838 -3.186279,4.24838 -18.570518,1.22893 -18.152147,14.57965 -18.152147,14.57965 -1.570301,2.32132 -18.972852,0.82071 -18.972852,0.82071 l -0.144833,1.64142 c 0,0 16.315022,1.16752 19.455624,-0.67588 0,0 2.589802,2.34215 4.296651,2.75179 z"
       id="path1-4"
       sodipodi:nodetypes="cccccccccccccc" /><path
       style="fill:#ffffff;fill-opacity:1;stroke:none;stroke-width:1.1;stroke-linecap:square;stroke-dasharray:none"
       d="m 80.243969,114.18257 c -1.228931,4.77918 4.028165,7.51014 4.028165,7.51014 1.365479,-0.40964 0.614465,-6.2812 0.614465,-6.2812 -3.004054,-3.27715 -4.64263,-1.22894 -4.64263,-1.22894 z"
       id="path2-2"
       sodipodi:nodetypes="cccc" /><path
       style="fill:none;fill-opacity:1;stroke:#000000;stroke-width:0.5;stroke-linecap:square;stroke-dasharray:none;stroke-opacity:1"
       d="m 91.065382,122.44267 c 0,0 2.412006,-3.21194 4.657187,-0.0836"
       id="path4-2-6-6"
       sodipodi:nodetypes="cc" /></g></svg>
